<svg xmlns="http://www.w3.org/2000/svg" viewBox="0 0 800 600" preserveAspectRatio="xMidYMid slice">
  <defs>
    <radialGradient id="glow" cx="50%" cy="55%" r="60%">
      <stop offset="0" stop-color="#e6bd73" stop-opacity="0.9"></stop><stop offset="35%" stop-color="#a85a32" stop-opacity="0.45"></stop><stop offset="100%" stop-color="#0b0805" stop-opacity="0"></stop>
    </radialGradient>
    <linearGradient id="rock" x1="0" y1="0" x2="0" y2="1">
      <stop offset="0" stop-color="#0e0b07"></stop><stop offset="1" stop-color="#050403"></stop>
    </linearGradient>
  </defs>
  <rect width="800" height="600" fill="#080603"></rect>
  <rect width="800" height="600" fill="url(#glow)"></rect>
  <g fill="url(#rock)">
    <path d="M0 0 L120 0 L60 160 L0 130 Z"></path>
    <path d="M180 0 L260 0 L210 120 L150 90 Z"></path>
    <path d="M600 0 L700 0 L660 140 L610 100 Z"></path>
    <path d="M760 0 L800 0 L800 100 L730 150 Z"></path>
    <path d="M0 600 L0 460 L140 500 L60 600 Z"></path>
    <path d="M800 600 L800 440 L650 500 L740 600 Z"></path>
  </g>
  <rect x="392" y="300" width="16" height="90" fill="#3a2a18"></rect>
  <ellipse cx="400" cy="290" rx="22" ry="34" fill="#f3d192"></ellipse>
  <ellipse cx="400" cy="285" rx="12" ry="20" fill="#fff3d8"></ellipse>
</svg>